<?xml version="1.0" encoding="UTF-8"?>
<svg id="a" data-name="Camada 2" xmlns="http://www.w3.org/2000/svg" viewBox="0 0 167.04 60.51">
  <g id="b" data-name="Layer 1">
    <g>
      <g isolation="isolate">
        <g isolation="isolate">
          <path d="m28.29,43.42c-2.33,0-4.49-.38-6.48-1.14-1.98-.76-3.69-1.81-5.13-3.16-1.43-1.35-2.56-2.97-3.38-4.85-.82-1.88-1.22-3.95-1.22-6.2s.41-4.32,1.22-6.2c.82-1.88,1.94-3.5,3.38-4.85,1.43-1.35,3.14-2.41,5.13-3.16,1.98-.76,4.14-1.14,6.48-1.14,2.73,0,5.16.48,7.3,1.43,2.14.96,3.92,2.32,5.36,4.09l-5.23,4.77c-.96-1.12-2-1.98-3.14-2.57-1.14-.59-2.43-.89-3.86-.89-1.21,0-2.33.2-3.35.61-1.03.41-1.91.98-2.64,1.73s-1.3,1.65-1.71,2.7c-.41,1.05-.61,2.21-.61,3.48s.2,2.43.61,3.48c.41,1.05.98,1.96,1.71,2.7.73.75,1.61,1.32,2.64,1.73,1.03.41,2.14.61,3.35.61,1.43,0,2.72-.29,3.86-.89s2.19-1.45,3.14-2.57l5.23,4.73c-1.43,1.8-3.22,3.18-5.36,4.13-2.14.96-4.57,1.43-7.3,1.43Z" fill="#06192b"/>
        </g>
        <g isolation="isolate">
          <path d="m49.43,42.83h-8.44l13.08-29.53h8.1l13.08,29.53h-8.56l-8.65-21.47-8.61,21.47Z" fill="#06192b"/>
          <path d="m104.78,42.83h-8.82l-5.4-7.89h-4.64v7.89h-8.27v-14.26h12.95c1.77,0,3.09-.39,3.97-1.16.87-.77,1.31-1.85,1.31-3.23s-.44-2.45-1.31-3.23c-.87-.77-2.19-1.16-3.97-1.16h-12.95v-6.5h13.42c2.03,0,3.85.25,5.46.76,1.62.51,3,1.23,4.13,2.17,1.14.94,2.01,2.08,2.62,3.42.6,1.34.91,2.85.91,4.54,0,2.19-.51,4.08-1.52,5.65s-2.45,2.8-4.3,3.67l6.41,9.32Z" fill="#06192b"/>
        </g>
      </g>
      <g isolation="isolate">
        <g isolation="isolate">
          <path d="m113.4,42.83V13.3h4.81v29.53h-4.81Z" fill="#06192b"/>
          <path d="m131.46,42.83h-4.81V13.3h3.97l17,20.97V13.3h4.81v29.53h-3.97l-17-20.97v20.97Z" fill="#06192b"/>
        </g>
      </g>
    </g>
    <path d="m42.6,53.91C16.16,54.98.44,50.19.07,51.8c-.35,1.51,12.99,8.06,28.76,8.19,14.43.12,27.3-5.17,27.07-6.41-.14-.74-4.94,0-13.3.33Z" fill="#0070ba"/>
    <path d="m42.27,51.39C16.39,56.92.09,54.86,0,56.51c-.09,1.55,14.17,5.74,29.73,3.2,14.24-2.33,26.04-9.72,25.59-10.9-.26-.7-4.87.83-13.05,2.58Z" fill="#0070ba" isolation="isolate" opacity=".2"/>
    <path d="m153.74,6.6c-26.44-1.06-42.16,3.72-42.53,2.11-.35-1.51,12.99-8.06,28.76-8.19,14.43-.12,27.3,5.17,27.07,6.41-.14.74-4.94,0-13.3-.33Z" fill="#0070ba"/>
    <path d="m153.73,9.12c-25.88-5.52-42.18-3.47-42.27-5.12-.09-1.55,14.17-5.74,29.73-3.2,14.24,2.33,26.04,9.72,25.59,10.9-.26.7-4.87-.83-13.05-2.58h0Z" fill="#0070ba" isolation="isolate" opacity=".2"/>
  </g>
</svg>