<?xml version="1.0" encoding="UTF-8"?>
<svg id="Camada_2" data-name="Camada 2" xmlns="http://www.w3.org/2000/svg" viewBox="0 0 167.04 60.51">
  <defs>
    <style>
      .cls-1, .cls-2 {
        fill: #0070ba;
        stroke-width: 0px;
      }

      .cls-2 {
        opacity: .2;
      }

      .cls-3 {
        letter-spacing: 0em;
      }

      .cls-4 {
        font-family: MontserratAlt1-SemiBold, Montserrat-Alt1;
        font-weight: 600;
      }

      .cls-4, .cls-5 {
        fill: #06192b;
        font-size: 42.19px;
      }

      .cls-5 {
        font-family: MontserratAlt1-Black, Montserrat-Alt1;
        font-weight: 800;
      }
    </style>
  </defs>
  <g id="Layer_1" data-name="Layer 1">
    <g>
      <text class="cls-5" transform="translate(10.61 42.83)"><tspan class="cls-3" x="0" y="0">C</tspan><tspan x="30.97" y="0">AR</tspan></text>
      <text class="cls-4" transform="translate(109.18 42.83)"><tspan x="0" y="0">IN</tspan></text>
    </g>
    <path class="cls-1" d="m42.6,53.91C16.16,54.98.44,50.19.07,51.8c-.35,1.51,12.99,8.06,28.76,8.19,14.43.12,27.3-5.17,27.07-6.41-.14-.74-4.94,0-13.3.33Z"/>
    <path class="cls-2" d="m42.27,51.39C16.39,56.92.09,54.86,0,56.51c-.09,1.55,14.17,5.74,29.73,3.2,14.24-2.33,26.04-9.72,25.59-10.9-.26-.7-4.87.83-13.05,2.58Z"/>
    <path class="cls-1" d="m153.74,6.6c-26.44-1.06-42.16,3.72-42.53,2.11-.35-1.51,12.99-8.06,28.76-8.19,14.43-.12,27.3,5.17,27.07,6.41-.14.74-4.94,0-13.3-.33Z"/>
    <path class="cls-2" d="m153.73,9.12c-25.88-5.52-42.18-3.47-42.27-5.12-.09-1.55,14.17-5.74,29.73-3.2,14.24,2.33,26.04,9.72,25.59,10.9-.26.7-4.87-.83-13.05-2.58Z"/>
  </g>
</svg>